<?xml version="1.0" encoding="UTF-8" standalone="no"?>
<!-- Created with Inkscape (http://www.inkscape.org/) -->

<svg
   xmlns:osb="http://www.openswatchbook.org/uri/2009/osb"
   xmlns:dc="http://purl.org/dc/elements/1.1/"
   xmlns:cc="http://creativecommons.org/ns#"
   xmlns:rdf="http://www.w3.org/1999/02/22-rdf-syntax-ns#"
   xmlns:svg="http://www.w3.org/2000/svg"
   xmlns="http://www.w3.org/2000/svg"
   xmlns:sodipodi="http://sodipodi.sourceforge.net/DTD/sodipodi-0.dtd"
   xmlns:inkscape="http://www.inkscape.org/namespaces/inkscape"
   width="210mm"
   height="297mm"
   viewBox="0 0 744.09448819 1052.3622047"
   id="svg4416"
   version="1.1"
   inkscape:version="0.91 r13725"
   sodipodi:docname="channel3.svg">
  <defs
     id="defs4418">
    <linearGradient
       id="linearGradient4175"
       osb:paint="solid">
      <stop
         style="stop-color:#000000;stop-opacity:1;"
         offset="0"
         id="stop4177" />
    </linearGradient>
    <linearGradient
       id="linearGradient4169"
       osb:paint="solid">
      <stop
         style="stop-color:#ff0000;stop-opacity:1;"
         offset="0"
         id="stop4171" />
    </linearGradient>
  </defs>
  <sodipodi:namedview
     id="base"
     pagecolor="#ffffff"
     bordercolor="#666666"
     borderopacity="1.0"
     inkscape:pageopacity="0.0"
     inkscape:pageshadow="2"
     inkscape:zoom="2"
     inkscape:cx="311.74181"
     inkscape:cy="410.49839"
     inkscape:document-units="px"
     inkscape:current-layer="layer1"
     showgrid="false"
     inkscape:window-width="1920"
     inkscape:window-height="1017"
     inkscape:window-x="0"
     inkscape:window-y="30"
     inkscape:window-maximized="1" />
  <metadata
     id="metadata4421">
    <rdf:RDF>
      <cc:Work
         rdf:about="">
        <dc:format>image/svg+xml</dc:format>
        <dc:type
           rdf:resource="http://purl.org/dc/dcmitype/StillImage" />
        <dc:title></dc:title>
      </cc:Work>
    </rdf:RDF>
  </metadata>
  <g
     inkscape:label="Layer 1"
     inkscape:groupmode="layer"
     id="layer1">
    <path
       d="M 621.16106,828.23594 C 562.56935,904.51046 469.51454,952.62286 366.04169,949.74815 241.20352,946.27732 135.61364,869.55711 89.256153,761.91148 l 5.370583,-2.90257 c 0.952665,-0.43455 1.403928,-1.5432 1.019519,-2.52372 -24.31247,-62.65865 -25.866819,-130.98873 -5.849701,-193.55267 3.883087,-12.15066 8.601846,-24.10633 14.122846,-35.77231 5.52101,-11.6604 11.84982,-23.01439 18.96975,-33.96726 l 0.0613,-0.10028 c 36.64698,-56.34097 91.18847,-97.52286 153.65213,-117.82968 12.15066,-3.95551 24.61331,-7.11992 37.28766,-9.44866 12.01139,-2.20617 24.24005,-3.66581 36.61913,-4.33992 l -0.15042,4.1505 c -58.93713,7.10878 -112.98836,33.83356 -154.0644,74.85389 -8.07816,8.06144 -15.64377,16.67443 -22.64113,25.78325 -7.00292,9.10882 -13.44874,18.74132 -19.27058,28.84738 l -0.0334,0.0557 c -29.87247,51.86734 -40.78077,111.71256 -32.16778,169.60788 1.68249,11.28157 4.10036,22.48514 7.2592,33.53829 3.15327,11.01972 7.05864,21.92802 11.72726,32.6469 l 0.0947,0.2117 c 0.0279,0.078 0.0557,0.15042 0.0947,0.22285 0.51254,0.97495 1.71591,1.34821 2.68529,0.83567 l 7.00849,-3.67139 c 0.90253,-0.42897 1.35936,-1.48192 1.0251,-2.44573 -16.73572,-48.02882 -16.63544,-99.72903 -0.72425,-146.91662 3.09198,-9.1701 6.79122,-18.18421 11.081,-26.97547 4.27864,-8.76898 9.15339,-17.32069 14.61311,-25.57155 l 0.006,-0.0111 -0.006,0.0111 0.006,-0.0111 -0.006,0.0111 0.0557,-0.0891 c 28.08413,-42.44097 69.26603,-73.70065 116.42575,-89.6397 9.18682,-3.10312 18.59091,-5.62685 28.15656,-7.53775 8.89712,-1.77163 17.93908,-3.01956 27.08133,-3.71595 l -0.17828,4.21735 c -42.42982,7.15892 -80.90414,27.78329 -110.10807,58.16274 -5.75499,5.9834 -11.14786,12.34565 -16.13961,19.05331 -4.98617,6.71322 -9.58236,13.77743 -13.73843,21.16477 l 0,0 -0.0112,0.0167 -0.0223,0.0446 c -21.30962,37.91163 -29.34321,81.32755 -23.68293,123.57353 1.10308,8.23415 2.72986,16.41816 4.86918,24.50189 2.13932,8.05587 4.79118,16.02261 7.9723,23.85006 l 0.0334,0.0947 0.10028,0.24513 0.006,-0.006 0.0836,0.18385 c 0.51254,0.96938 1.71591,1.33708 2.68529,0.82453 l 7.00293,-3.71038 c 0.89138,-0.38998 1.38164,-1.39279 1.11423,-2.35659 -9.27596,-33.20402 -7.66033,-68.14623 4.01679,-99.87946 l 0.0557,-0.13371 c 2.28974,-6.20625 4.95832,-12.27323 7.98345,-18.15078 3.02513,-5.86085 6.43467,-11.59912 10.22862,-17.15913 l 0.0557,-0.078 c 19.47672,-28.50197 47.29901,-49.7726 79.18266,-61.24358 6.22297,-2.2396 12.57964,-4.10036 19.03103,-5.56557 5.77727,-1.30922 11.66597,-2.31203 17.61038,-2.99171 l -0.0947,4.36221 c -25.82782,6.80794 -48.80321,21.11463 -66.19632,40.79191 -3.45411,3.90537 -6.69095,8.02245 -9.67151,12.3178 -2.98056,4.29535 -5.73271,8.8024 -8.22858,13.49331 l 0,0 -0.0167,0.0278 c -12.75792,24.00606 -17.78866,51.09296 -14.84153,77.62274 0.57383,5.16445 1.45407,10.31219 2.63515,15.41536 1.18109,5.11431 2.66858,10.1729 4.45692,15.13679 l 0.0724,0.20056 c 0.0334,0.0891 0.078,0.18385 0.12257,0.27299 0.52369,0.96938 1.73262,1.32593 2.69643,0.80224 l 4.96389,-2.71314 c 12.50722,48.62494 55.96771,85.17164 108.64287,86.63128 31.14826,0.86909 59.75051,-10.69103 81.07684,-30.16774 l 3.81067,2.30088 c -2.88586,3.29811 -5.93884,6.44581 -9.13111,9.43194 l -0.0724,0.0836 c -3.6881,3.44297 -7.56561,6.65195 -11.58798,9.61579 -20.86393,15.35965 -46.07893,24.28462 -72.46943,25.20943 l -0.15599,0.006 -0.006,0 c -5.13659,0.1727 -10.2509,0.0446 -15.3095,-0.38441 -5.04745,-0.42341 -10.07262,-1.14766 -15.03651,-2.1616 -25.41556,-5.18117 -48.95364,-17.90566 -67.34955,-36.84755 -0.63511,-0.65182 -1.61006,-0.76881 -2.37888,-0.35098 l 0,-0.006 -7.12549,3.91094 c -0.96381,0.52369 -1.30922,1.73263 -0.78554,2.69087 0.039,0.0724 0.0836,0.13927 0.12814,0.20613 l 0,0 0.11699,0.16156 c 4.02237,5.57672 8.36786,10.87487 13.00305,15.86662 4.63519,4.99174 9.54894,9.67707 14.69668,14.02256 26.49636,22.357 59.58895,36.12887 94.82086,38.80302 l 0.19499,0.0111 0.0724,0.006 c 6.85251,0.50698 13.67159,0.59054 20.41824,0.26742 6.75223,-0.3287 13.49331,-1.07523 20.17311,-2.22846 33.63299,-5.79399 65.00967,-21.85003 89.55056,-46.44105 l 3.62681,2.27302 c -4.74661,5.98898 -9.82192,11.65484 -15.17579,16.98642 -5.82184,5.78842 -11.97239,11.18129 -18.39592,16.13403 -33.07587,25.51027 -73.87336,39.96738 -116.50374,40.45764 l -0.24513,0 -0.10028,0.006 c -8.27315,0.078 -16.48502,-0.3677 -24.58546,-1.32037 -8.10601,-0.95266 -16.14517,-2.41787 -24.06734,-4.38449 -40.53564,-10.0392 -77.23833,-33.00902 -104.18038,-66.11275 -0.60725,-0.74096 -1.63791,-0.93038 -2.4513,-0.50698 l -7.15335,3.73267 c -0.96938,0.50697 -1.34822,1.70477 -0.84124,2.67972 l 0.11142,0.18385 -0.006,0 0.16156,0.23956 c 5.61571,8.35671 11.73283,16.27888 18.29007,23.73307 6.56837,7.45976 13.58244,14.45711 20.98092,20.9475 38.02863,33.37671 86.47529,53.7281 138.11422,56.8758 l 0.28412,0.0167 c 10.05592,0.60168 20.06726,0.5404 29.97275,-0.15599 9.91664,-0.70197 19.73857,-2.03904 29.38779,-3.98337 49.05948,-9.90549 94.14117,-35.63303 127.7686,-74.03492 l 3.49867,2.21731 c -6.53495,8.71884 -13.54902,16.94185 -20.98092,24.62446 -7.86646,8.13387 -16.22874,15.71619 -25.02001,22.69683 -45.13183,35.85588 -101.53965,56.02342 -160.48792,56.07913 l -0.3287,0.006 c -11.46541,-0.006 -22.85283,-0.77439 -34.08425,-2.26745 -11.237,-1.49864 -22.29572,-3.72153 -33.11488,-6.63523 -55.65015,-15.00309 -105.40046,-48.41324 -140.52095,-95.82367 -0.59054,-0.80224 -1.67134,-1.02509 -2.52372,-0.56825 l -7.09207,3.75495 c -0.96938,0.51811 -1.33707,1.72148 -0.82453,2.68529 l 0.0836,0.13928 0,0.006 0.20056,0.31755 c 7.1812,11.14229 15.04766,21.70518 23.52137,31.63295 8.47928,9.93892 17.57695,19.25945 27.21503,27.917 49.47732,44.44658 113.20563,71.3942 181.16801,75.0043 l 0.37884,0.0223 c 13.24818,0.68525 26.41279,0.47355 39.41027,-0.59611 13.00861,-1.06966 25.8891,-3.00285 38.54674,-5.76614 64.41355,-14.04485 123.04984,-49.52746 165.57437,-101.8015 l 3.4374,2.13375"
       style="fill:#231f20;fill-opacity:1;fill-rule:evenodd;stroke:none"
       id="path3699"
       inkscape:connector-curvature="0" />
    <circle
       style="fill:#009f94;fill-rule:evenodd;stroke:#e10000;stroke-width:0.7282142px;stroke-linecap:butt;stroke-linejoin:miter;stroke-opacity:1;fill-opacity:0.05882353"
       id="path3348"
       cx="374.70535"
       cy="639.28851"
       r="115.01854" />
    <circle
       style="fill:#009f94;fill-opacity:0.05882353;stroke:#2f87d9;stroke-width:1.23;stroke-opacity:0.71764708;stroke-miterlimit:4;stroke-dasharray:none"
       id="path4181"
       cx="390.19925"
       cy="641.33398"
       r="165.60582" />
    <circle
       style="fill:#009fea;fill-opacity:1;stroke:#2f87d9;stroke-width:0.00281013;stroke-miterlimit:4;stroke-dasharray:none;stroke-opacity:0.71764706"
       id="path4181-3"
       cx="390.20325"
       cy="641.34943"
       r="0.3783533" />
    <circle
       style="fill:#009f94;fill-opacity:0.05882353;stroke:#2f8723;stroke-width:1.46569502;stroke-miterlimit:4;stroke-dasharray:none;stroke-opacity:0.71764706"
       id="path4181-6"
       cx="381.38062"
       cy="625.33337"
       r="197.33954" />
    <circle
       style="fill:#00ed72;fill-opacity:0.91764706;stroke:#2f8723;stroke-width:0.00281881;stroke-miterlimit:4;stroke-dasharray:none;stroke-opacity:0.71764706"
       id="path4181-6-7"
       cx="-351.34286"
       cy="642.56885"
       r="0.37952173"
       transform="matrix(0.49949274,-0.86631807,0.86631807,0.49949274,0,0)" />
    <circle
       style="fill:#de0000;fill-opacity:0.72941178;fill-rule:evenodd;stroke:#e10000;stroke-width:0.00279887px;stroke-linecap:butt;stroke-linejoin:miter;stroke-opacity:1"
       id="path3348-5"
       cx="374.70837"
       cy="639.29303"
       r="0.4420701" />
    <circle
       style="fill:#009f94;fill-opacity:0.05882353;stroke:#ab33ee;stroke-width:1.2112546;stroke-miterlimit:4;stroke-dasharray:none;stroke-opacity:0.75882353"
       id="path4181-7"
       cx="365.26828"
       cy="651.77289"
       r="163.08194" />
    <circle
       style="fill:#9d24e2;fill-opacity:0.93529409;stroke:#ab33ee;stroke-width:0.00412729;stroke-miterlimit:4;stroke-dasharray:none;stroke-opacity:0.75882353"
       id="path4181-7-9"
       cx="365.26514"
       cy="651.77209"
       r="0.55569416" />
    <circle
       style="fill:#009f94;fill-opacity:0.05882353;stroke:#db810e;stroke-width:1.44990182;stroke-miterlimit:4;stroke-dasharray:none;stroke-opacity:0.71764706"
       id="path4181-6-3"
       cx="359.43411"
       cy="640.06421"
       r="195.21317" />
    <circle
       style="fill:#cc8e1a;fill-opacity:0.85882353;stroke:#db810e;stroke-width:0.00401493;stroke-miterlimit:4;stroke-dasharray:none;stroke-opacity:0.71764706"
       id="path4181-6-3-6"
       cx="359.43506"
       cy="640.06305"
       r="0.54056513" />
  </g>
</svg>
